<svg xmlns="http://www.w3.org/2000/svg" width="42" height="51" fill="none"><path fill="#D2232A" d="M19.455 1.619.63 20.445A2.146 2.146 0 0 0 0 21.961v18.816a2.146 2.146 0 0 0 2.135 2.146H18.64a2.135 2.135 0 0 1 2.146 2.145v4.715a1.083 1.083 0 0 0 1.558 1.103l18.155-7.963a2.454 2.454 0 0 0 1.455-2.146V21.961c0-.569-.227-1.114-.63-1.516L22.498 1.619a2.134 2.134 0 0 0-3.022 0"/><path fill="#fff" fill-rule="evenodd" d="M12.74 24.623a4.817 4.817 0 1 1 4.807 4.6 4.569 4.569 0 0 1-4.807-4.6Zm7.954 0a3.095 3.095 0 1 0-6.19 0 3.095 3.095 0 0 0 6.19 0Zm-10.306-.103h1.568v3.548a5.643 5.643 0 0 1-3.497 1.135 4.603 4.603 0 0 1-4.818-4.596 4.6 4.6 0 0 1 4.818-4.595 4.622 4.622 0 0 1 3.59 1.454l-1.031 1.032a3.322 3.322 0 0 0-2.466-1.032 3.141 3.141 0 0 0 0 6.283 3.63 3.63 0 0 0 1.836-.465V24.52Zm13.455-2.63a4.818 4.818 0 0 0-.705 2.733 4.571 4.571 0 0 0 4.818 4.6 4.817 4.817 0 1 0-4.113-7.333Zm6.727 1.014c.34.509.522 1.107.522 1.719a3.042 3.042 0 0 1-3.095 3.095 3.095 3.095 0 1 1 2.573-4.814Zm-18.645 7.093v8.944h-1.66v-3.837H5.643v3.837h-1.66v-8.944h1.66v3.693h4.622v-3.693h1.66Zm3.373 6.87h4.467l.939 2.064h1.692l-4.034-8.944h-1.63l-4.023 8.944h1.713l.877-2.063Zm2.239-5.209 1.681 3.91h-3.363l1.682-3.91Zm4.859 3.384v-5.045h1.66v4.983c0 1.836.836 2.63 2.27 2.63 1.434 0 2.26-.794 2.26-2.63v-4.983h1.64v5.045c0 2.61-1.466 4.023-3.91 4.023-2.445 0-3.92-1.413-3.92-4.023Zm8.985 1.66-.568 1.29v.041a5.736 5.736 0 0 0 3.518 1.032c2.455 0 3.62-1.228 3.62-2.662 0-1.863-1.71-2.268-3.188-2.619-1.124-.266-2.114-.501-2.114-1.321 0-.681.557-1.217 1.94-1.217a5.037 5.037 0 0 1 2.465.701l.526-1.29a5.736 5.736 0 0 0-2.98-.783c-2.446 0-3.601 1.227-3.601 2.661 0 1.885 1.71 2.295 3.191 2.65 1.128.27 2.122.508 2.122 1.342 0 .66-.588 1.156-1.981 1.156a4.962 4.962 0 0 1-2.95-.98Z" clip-rule="evenodd"/></svg>