<svg xmlns="http://www.w3.org/2000/svg" width="501" height="120" fill="none"><path fill="#0071CE" d="M290.273 63.858c0-11.85-5.073-22.32-22.229-22.32-8.802 0-15.795 2.508-19.586 4.704l2.779 9.507c3.49-2.19 9.06-3.993 14.316-3.993 8.686-.012 10.109 4.901 10.109 8.06v.76c-18.96-.03-30.945 6.521-30.945 19.862 0 8.152 6.085 15.795 16.721 15.795 6.489 0 11.973-2.62 15.248-6.754h.319s2.16 9.036 14.102 5.582c-.607-3.784-.834-7.771-.834-12.617V63.858Zm-14.144 12.513c0 .957-.08 1.95-.362 2.803-1.093 3.65-4.858 6.705-9.545 6.705-3.956 0-7.06-2.239-7.06-6.931 0-7.177 7.925-9.152 16.967-9.103M0 25.413S12.384 76.08 14.353 84.286c2.319 9.593 6.471 13.139 18.457 10.777l7.741-31.418c1.957-7.783 3.288-13.365 4.551-21.296h.215c.877 8.01 2.14 13.513 3.742 21.321 0 0 3.159 14.274 4.796 21.75 1.595 7.478 6.085 12.195 17.844 9.643l18.426-69.65H75.25l-6.324 30.13c-1.674 8.728-3.196 15.604-4.38 23.603h-.214c-1.067-7.913-2.423-14.507-4.165-23.057l-6.55-30.676h-15.52l-6.992 29.89c-1.994 9.128-3.858 16.445-5.03 24.192h-.202c-1.209-7.268-2.847-16.524-4.582-25.308 0 0-4.153-21.401-5.619-28.774m115.906 38.445c0-11.85-5.085-22.32-22.241-22.32-8.778 0-15.783 2.508-19.573 4.704l2.778 9.507c3.478-2.19 9.042-3.993 14.317-3.993 8.685-.012 10.108 4.901 10.108 8.06v.76c-18.96-.03-30.957 6.521-30.957 19.862 0 8.152 6.11 15.795 16.696 15.795 6.551 0 11.986-2.62 15.261-6.754h.331s2.172 9.036 14.102 5.582c-.613-3.784-.822-7.771-.822-12.617V63.858Zm-14.157 12.513c0 .957-.079 1.95-.349 2.803-1.105 3.65-4.871 6.705-9.569 6.705-3.932 0-7.048-2.239-7.048-6.931 0-7.177 7.925-9.152 16.966-9.103m21.876-44.432V95.04h14.157V25.414h-14.157Zm194.426 0v51.371c0 7.091 1.331 12.035 4.195 15.065 2.515 2.656 6.631 4.386 11.532 4.386 4.208 0 8.323-.81 10.268-1.515l-.172-11.06a22.68 22.68 0 0 1-5.398.626c-4.833 0-6.428-3.06-6.428-9.428V55.193h12.329V41.889H347.72V25.413m-50.589 17.332v52.316h14.635V68.27c0-1.442.092-2.687.319-3.84 1.092-5.65 5.379-9.226 11.556-9.226 1.724 0 2.895.19 4.196.393V41.881c-1.092-.197-1.834-.3-3.177-.3-5.478 0-11.686 3.477-14.305 11.052h-.362v-9.888m-148.319 0v52.316h14.261V64.355c0-1.441.159-2.913.668-4.245 1.16-3.11 4.037-6.71 8.655-6.71 5.742 0 8.453 4.846 8.453 11.838v29.823h14.224V63.987c0-1.355.191-3.018.589-4.22 1.141-3.527 4.257-6.367 8.563-6.367 5.803 0 8.612 4.742 8.612 12.985v28.676h14.212V64.214c0-16.206-8.244-22.634-17.604-22.634-4.116 0-7.391 1.012-10.336 2.828-2.49 1.527-4.674 3.68-6.63 6.496h-.215c-2.251-5.631-7.538-9.324-14.445-9.324-8.858 0-12.881 4.472-15.249 8.25h-.215v-7.084"/><path fill="#FFC220" d="M436.642 40.398c2.797 0 5.152-1.46 5.459-3.337l2.773-31.406c0-3.11-3.662-5.655-8.232-5.655-4.594 0-8.232 2.546-8.232 5.655l2.797 31.406c.295 1.877 2.638 3.337 5.435 3.337Zm-17.012 9.827c1.386-2.454 1.306-5.177-.191-6.392l-25.885-18.1c-2.692-1.57-6.723.3-9.029 4.262-2.3 3.957-1.834 8.398.804 9.937l28.657 13.286c1.834.687 4.233-.589 5.644-3.018m34.018-.001c1.466 2.429 3.864 3.705 5.65 3.055l28.657-13.323c2.662-1.57 3.061-5.968.81-9.925-2.301-3.962-6.355-5.82-9.042-4.281l-25.891 18.082c-1.435 1.233-1.539 3.97-.153 6.416m-17.037 29.404c2.797 0 5.152 1.46 5.459 3.337l2.773 31.405c0 3.11-3.662 5.631-8.232 5.631-4.594 0-8.232-2.521-8.232-5.631l2.797-31.405c.295-1.877 2.638-3.337 5.435-3.337Zm17.006-9.799c1.466-2.436 3.864-3.736 5.65-3.03l28.657 13.298c2.662 1.54 3.061 5.974.81 9.937-2.301 3.931-6.355 5.802-9.042 4.263l-25.891-18.108c-1.435-1.22-1.539-3.944-.153-6.36M419.63 69.8c1.386 2.448 1.306 5.165-.191 6.392L393.554 94.27c-2.692 1.57-6.723-.307-9.029-4.239-2.3-3.956-1.834-8.397.804-9.937l28.657-13.298c1.834-.7 4.233.589 5.644 3.006Zm76.712 21.74h.356c.484 0 .681.153.736.54.104.429.159.717.263.84h.921c-.08-.092-.184-.326-.24-.865-.104-.466-.343-.73-.681-.822v-.086c.467-.104.737-.417.737-.804 0-.35-.16-.6-.319-.76-.307-.147-.601-.264-1.252-.264-.576 0-1 .05-1.337.129v3.472h.816v-1.38Zm.025-1.583.417-.055c.49 0 .754.227.754.546 0 .355-.356.521-.809.521h-.362v-1.012Zm.521-2.355c-2.012 0-3.607 1.57-3.607 3.496 0 1.975 1.595 3.545 3.607 3.545 2.036 0 3.582-1.57 3.582-3.545 0-1.926-1.546-3.496-3.582-3.496Zm0 .705c1.546 0 2.693 1.251 2.693 2.79 0 1.553-1.147 2.84-2.693 2.816-1.546 0-2.718-1.263-2.718-2.815 0-1.54 1.172-2.791 2.693-2.791"/></svg>