<svg xmlns="http://www.w3.org/2000/svg" width="209" height="45" fill="none"><path fill="#fff" fill-rule="evenodd" d="m20.068.565 16.805 16.94a1.928 1.928 0 0 1 .56 1.362V35.81a1.938 1.938 0 0 1-.304 1.037c-.198.31-.48.556-.812.709l-16.43 7.354a.94.94 0 0 1-.396.092.95.95 0 0 1-.676-.285.968.968 0 0 1-.279-.684v-4.371c0-.512-.202-1.003-.56-1.365a1.908 1.908 0 0 0-1.355-.566H1.911c-.507 0-.992-.204-1.35-.565A1.937 1.937 0 0 1 0 35.805V18.863c0-.51.202-.999.56-1.359L17.365.565a1.91 1.91 0 0 1 1.351-.564 1.898 1.898 0 0 1 1.352.564Zm60.278 10.037c-7.117 0-12.363 5.057-12.363 11.9 0 6.844 5.249 11.898 12.364 11.898 7.116 0 12.362-5.026 12.362-11.899 0-6.872-5.247-11.9-12.363-11.9Zm0 3.768c4.623 0 8.066 3.404 8.066 8.131 0 4.73-3.442 8.131-8.066 8.131-4.624 0-8.066-3.404-8.066-8.13 0-4.728 3.443-8.132 8.066-8.132ZM65.99 22.239h-4.033l-.004 7.207c-1.473.859-3.08 1.19-4.718 1.19-4.854 0-8.297-3.439-8.297-8.132 0-4.793 3.442-8.132 8.329-8.132 2.459 0 4.525.827 6.329 2.644l2.688-2.644c-2.164-2.479-5.378-3.768-9.214-3.768-7.18 0-12.427 4.992-12.427 11.9s5.247 11.899 12.362 11.899c3.247 0 6.592-.988 8.985-2.941v-9.223Zm28.713.262c0-6.842 5.246-11.9 12.362-11.9 7.115 0 12.362 5.028 12.362 11.9 0 6.873-5.246 11.9-12.362 11.9-7.117 0-12.362-5.055-12.362-11.9Zm20.428 0c0-4.727-3.442-8.131-8.066-8.131-4.624 0-8.066 3.404-8.066 8.131s3.443 8.131 8.066 8.131c4.623 0 8.066-3.402 8.066-8.13Zm26.686 11.571V10.934h-4.262v9.554h-11.87v-9.554h-4.263v23.138h4.263v-9.916h11.87v9.916h4.262Zm20.129-5.355h-11.477l-2.263 5.351h-4.394L154.14 10.93h4.198l10.363 23.138h-4.459l-2.297-5.35Zm-1.411-3.37-4.328-10.115-4.297 10.114h8.625Zm8.165-14.413v13.057c0 6.743 3.772 10.412 10.067 10.412 6.263 0 10.034-3.67 10.034-10.412V10.934h-4.197v12.891c0 4.76-2.098 6.81-5.804 6.81-3.705 0-5.837-2.054-5.837-6.81v-12.89H168.7Zm21.608 20.692 1.475-3.338c1.837 1.488 4.754 2.547 7.575 2.547 3.574 0 5.083-1.289 5.083-3.007 0-2.159-2.552-2.772-5.448-3.467-3.8-.913-8.193-1.969-8.193-6.846 0-3.737 2.949-6.908 9.246-6.908 2.755 0 5.64.727 7.641 2.049l-1.348 3.339c-2.063-1.222-4.325-1.817-6.325-1.817-3.539 0-4.985 1.389-4.985 3.142 0 2.13 2.543 2.74 5.431 3.431 3.792.909 8.177 1.96 8.177 6.782 0 3.702-2.983 6.88-9.279 6.88-3.575-.01-7.149-1.134-9.05-2.787Z" clip-rule="evenodd"/></svg>